# xmcd
#
# Track frame offsets:
#	150
#	5034
#	23860
#	42286
#	56071
#	70021
#	93640
#	112623
#	133921
#	150253
#	168035
#	188096
#	202908
#	221128
#	237129
#	271792
#
# Disc length: 4013 seconds
#
# Revision: 1
# Processed by: cddbd v1.5.1PL0 Copyright (c) Steve Scherf et al.
# Submitted via: CDmax 2.0
#
DISCID=ce0fab10
DTITLE=Frankie Miller - Loreley Open Air Festival, St. Goarshausen, Germany o
DTITLE=n August 28th 1982
DYEAR=1982
DGENRE=Blues
TTITLE0=Intro
TTITLE1=Ain't Got No Money
TTITLE2=Zap Zap
TTITLE3=Be Good To Yourself
TTITLE4=Fool In Love
TTITLE5=All Coming Down Tonight
TTITLE6=Angels With Dirty Faces
TTITLE7=To Dream The Dream
TTITLE8=Danger Danger
TTITLE9=Standing On The Edge
TTITLE10=The Jealous Kind
TTITLE11=A Woman In Love
TTITLE12=Down The Honky Tonk
TTITLE13=Bad Case Of Loving You
TTITLE14=Don't Stop
TTITLE15=Let's Spend The Night Together
EXTD=
EXTT0=
EXTT1=
EXTT2=
EXTT3=
EXTT4=
EXTT5=
EXTT6=
EXTT7=
EXTT8=
EXTT9=
EXTT10=
EXTT11=
EXTT12=
EXTT13=
EXTT14=
EXTT15=
PLAYORDER=
